<mxfile host="Electron" agent="Mozilla/5.0 (Windows NT 10.0; Win64; x64) AppleWebKit/537.36 (KHTML, like Gecko) draw.io/24.7.17 Chrome/128.0.6613.36 Electron/32.0.1 Safari/537.36" version="24.7.17">
  <diagram name="Page-1" id="NdihzAnEiaJkdm2FKsvE">
    <mxGraphModel dx="2388" dy="1195" grid="1" gridSize="10" guides="1" tooltips="1" connect="1" arrows="1" fold="1" page="1" pageScale="1" pageWidth="850" pageHeight="1100" math="0" shadow="0">
      <root>
        <mxCell id="0" />
        <mxCell id="1" parent="0" />
        <mxCell id="quX8b9LSYVhGij03t-H_-1" value="" style="shape=hexagon;perimeter=hexagonPerimeter2;whiteSpace=wrap;html=1;fixedSize=1;size=160;strokeWidth=2;" vertex="1" parent="1">
          <mxGeometry x="130" y="320" width="700" height="600" as="geometry" />
        </mxCell>
        <mxCell id="quX8b9LSYVhGij03t-H_-2" value="&lt;font style=&quot;font-size: 24px;&quot;&gt;Application&lt;/font&gt;&lt;div style=&quot;font-size: 24px;&quot;&gt;&lt;font style=&quot;font-size: 24px;&quot;&gt;(Use Cases)&lt;/font&gt;&lt;/div&gt;" style="shape=hexagon;perimeter=hexagonPerimeter2;whiteSpace=wrap;html=1;fixedSize=1;size=95;strokeWidth=2;" vertex="1" parent="1">
          <mxGeometry x="287.5" y="460" width="385" height="320" as="geometry" />
        </mxCell>
        <mxCell id="quX8b9LSYVhGij03t-H_-4" value="Driver Side" style="text;html=1;align=center;verticalAlign=middle;whiteSpace=wrap;rounded=0;fontSize=16;fontStyle=1" vertex="1" parent="1">
          <mxGeometry x="270.52" y="160" width="127.5" height="30" as="geometry" />
        </mxCell>
        <mxCell id="quX8b9LSYVhGij03t-H_-5" value="Driven Side" style="text;html=1;align=center;verticalAlign=middle;whiteSpace=wrap;rounded=0;fontSize=16;fontStyle=1" vertex="1" parent="1">
          <mxGeometry x="580" y="160" width="127.5" height="30" as="geometry" />
        </mxCell>
        <mxCell id="quX8b9LSYVhGij03t-H_-6" value="" style="ellipse;whiteSpace=wrap;html=1;aspect=fixed;fillColor=#dae8fc;strokeColor=#6c8ebf;" vertex="1" parent="1">
          <mxGeometry x="580" y="470" width="40" height="40" as="geometry" />
        </mxCell>
        <mxCell id="quX8b9LSYVhGij03t-H_-8" value="" style="ellipse;whiteSpace=wrap;html=1;aspect=fixed;fillColor=#dae8fc;strokeColor=#6c8ebf;" vertex="1" parent="1">
          <mxGeometry x="610" y="520" width="40" height="40" as="geometry" />
        </mxCell>
        <mxCell id="quX8b9LSYVhGij03t-H_-9" value="" style="ellipse;whiteSpace=wrap;html=1;aspect=fixed;fillColor=#dae8fc;strokeColor=#6c8ebf;" vertex="1" parent="1">
          <mxGeometry x="632.5" y="570" width="40" height="40" as="geometry" />
        </mxCell>
        <mxCell id="quX8b9LSYVhGij03t-H_-10" value="" style="ellipse;whiteSpace=wrap;html=1;aspect=fixed;fillColor=#dae8fc;strokeColor=#6c8ebf;" vertex="1" parent="1">
          <mxGeometry x="632.5" y="630" width="40" height="40" as="geometry" />
        </mxCell>
        <mxCell id="quX8b9LSYVhGij03t-H_-11" value="" style="ellipse;whiteSpace=wrap;html=1;aspect=fixed;fillColor=#dae8fc;strokeColor=#6c8ebf;" vertex="1" parent="1">
          <mxGeometry x="610" y="680" width="40" height="40" as="geometry" />
        </mxCell>
        <mxCell id="quX8b9LSYVhGij03t-H_-12" value="" style="ellipse;whiteSpace=wrap;html=1;aspect=fixed;fillColor=#dae8fc;strokeColor=#6c8ebf;" vertex="1" parent="1">
          <mxGeometry x="580" y="730" width="40" height="40" as="geometry" />
        </mxCell>
        <mxCell id="quX8b9LSYVhGij03t-H_-13" value="" style="ellipse;whiteSpace=wrap;html=1;aspect=fixed;fillColor=#dae8fc;strokeColor=#6c8ebf;" vertex="1" parent="1">
          <mxGeometry x="350" y="730" width="40" height="40" as="geometry" />
        </mxCell>
        <mxCell id="quX8b9LSYVhGij03t-H_-14" value="" style="ellipse;whiteSpace=wrap;html=1;aspect=fixed;fillColor=#dae8fc;strokeColor=#6c8ebf;" vertex="1" parent="1">
          <mxGeometry x="315.75" y="683" width="40" height="40" as="geometry" />
        </mxCell>
        <mxCell id="quX8b9LSYVhGij03t-H_-15" value="" style="ellipse;whiteSpace=wrap;html=1;aspect=fixed;fillColor=#dae8fc;strokeColor=#6c8ebf;" vertex="1" parent="1">
          <mxGeometry x="287.5" y="630" width="40" height="40" as="geometry" />
        </mxCell>
        <mxCell id="quX8b9LSYVhGij03t-H_-16" value="" style="ellipse;whiteSpace=wrap;html=1;aspect=fixed;fillColor=#dae8fc;strokeColor=#6c8ebf;" vertex="1" parent="1">
          <mxGeometry x="350" y="470" width="40" height="40" as="geometry" />
        </mxCell>
        <mxCell id="quX8b9LSYVhGij03t-H_-17" value="" style="ellipse;whiteSpace=wrap;html=1;aspect=fixed;fillColor=#dae8fc;strokeColor=#6c8ebf;" vertex="1" parent="1">
          <mxGeometry x="320" y="510" width="40" height="40" as="geometry" />
        </mxCell>
        <mxCell id="quX8b9LSYVhGij03t-H_-18" value="" style="ellipse;whiteSpace=wrap;html=1;aspect=fixed;fillColor=#dae8fc;strokeColor=#6c8ebf;" vertex="1" parent="1">
          <mxGeometry x="287.5" y="560" width="40" height="40" as="geometry" />
        </mxCell>
        <mxCell id="quX8b9LSYVhGij03t-H_-20" value="" style="rounded=0;whiteSpace=wrap;html=1;rotation=329;fillColor=#fff2cc;strokeColor=#d6b656;" vertex="1" parent="1">
          <mxGeometry x="633.52" y="433" width="56.98" height="30" as="geometry" />
        </mxCell>
        <mxCell id="quX8b9LSYVhGij03t-H_-22" value="" style="rounded=0;whiteSpace=wrap;html=1;rotation=30;" vertex="1" parent="1">
          <mxGeometry x="689.48" y="670" width="56.98" height="30" as="geometry" />
        </mxCell>
        <mxCell id="quX8b9LSYVhGij03t-H_-23" value="" style="rounded=0;whiteSpace=wrap;html=1;rotation=30;" vertex="1" parent="1">
          <mxGeometry x="660" y="720" width="56.98" height="30" as="geometry" />
        </mxCell>
        <mxCell id="quX8b9LSYVhGij03t-H_-24" value="" style="rounded=0;whiteSpace=wrap;html=1;rotation=30;" vertex="1" parent="1">
          <mxGeometry x="632.5" y="770" width="56.98" height="30" as="geometry" />
        </mxCell>
        <mxCell id="quX8b9LSYVhGij03t-H_-26" value="" style="rounded=0;whiteSpace=wrap;html=1;rotation=329;fillColor=#fff2cc;strokeColor=#d6b656;" vertex="1" parent="1">
          <mxGeometry x="694.5" y="540" width="56.98" height="30" as="geometry" />
        </mxCell>
        <mxCell id="quX8b9LSYVhGij03t-H_-27" value="" style="rounded=0;whiteSpace=wrap;html=1;rotation=30;fillColor=#fff2cc;strokeColor=#d6b656;" vertex="1" parent="1">
          <mxGeometry x="689.48" y="670" width="56.98" height="30" as="geometry" />
        </mxCell>
        <mxCell id="quX8b9LSYVhGij03t-H_-29" value="" style="rounded=0;whiteSpace=wrap;html=1;rotation=30;fillColor=#fff2cc;strokeColor=#d6b656;" vertex="1" parent="1">
          <mxGeometry x="632.5" y="770" width="56.98" height="30" as="geometry" />
        </mxCell>
        <mxCell id="quX8b9LSYVhGij03t-H_-31" value="" style="rounded=0;whiteSpace=wrap;html=1;rotation=30;" vertex="1" parent="1">
          <mxGeometry x="244.04000000000002" y="476" width="56.98" height="30" as="geometry" />
        </mxCell>
        <mxCell id="quX8b9LSYVhGij03t-H_-32" value="" style="rounded=0;whiteSpace=wrap;html=1;rotation=30;" vertex="1" parent="1">
          <mxGeometry x="216.54000000000002" y="526" width="56.98" height="30" as="geometry" />
        </mxCell>
        <mxCell id="quX8b9LSYVhGij03t-H_-33" value="" style="rounded=0;whiteSpace=wrap;html=1;rotation=30;fillColor=#fff2cc;strokeColor=#d6b656;" vertex="1" parent="1">
          <mxGeometry x="273.52000000000004" y="431" width="56.98" height="30" as="geometry" />
        </mxCell>
        <mxCell id="quX8b9LSYVhGij03t-H_-35" value="" style="rounded=0;whiteSpace=wrap;html=1;rotation=30;fillColor=#fff2cc;strokeColor=#d6b656;" vertex="1" parent="1">
          <mxGeometry x="216.54000000000002" y="526" width="56.98" height="30" as="geometry" />
        </mxCell>
        <mxCell id="quX8b9LSYVhGij03t-H_-36" value="" style="rounded=0;whiteSpace=wrap;html=1;rotation=329;fillColor=#fff2cc;strokeColor=#d6b656;" vertex="1" parent="1">
          <mxGeometry x="204.53999999999996" y="673" width="56.98" height="30" as="geometry" />
        </mxCell>
        <mxCell id="quX8b9LSYVhGij03t-H_-38" value="" style="rounded=0;whiteSpace=wrap;html=1;rotation=329;fillColor=#fff2cc;strokeColor=#d6b656;" vertex="1" parent="1">
          <mxGeometry x="265.52" y="780" width="56.98" height="30" as="geometry" />
        </mxCell>
        <mxCell id="quX8b9LSYVhGij03t-H_-39" value="" style="endArrow=none;html=1;rounded=0;exitX=0.5;exitY=0;exitDx=0;exitDy=0;" edge="1" parent="1" source="quX8b9LSYVhGij03t-H_-2">
          <mxGeometry width="50" height="50" relative="1" as="geometry">
            <mxPoint x="400" y="590" as="sourcePoint" />
            <mxPoint x="480" y="60" as="targetPoint" />
          </mxGeometry>
        </mxCell>
        <mxCell id="quX8b9LSYVhGij03t-H_-40" value="" style="endArrow=none;html=1;rounded=0;" edge="1" parent="1">
          <mxGeometry width="50" height="50" relative="1" as="geometry">
            <mxPoint x="480" y="1130" as="sourcePoint" />
            <mxPoint x="479.5" y="780" as="targetPoint" />
          </mxGeometry>
        </mxCell>
        <mxCell id="quX8b9LSYVhGij03t-H_-41" value="" style="shape=cylinder3;whiteSpace=wrap;html=1;boundedLbl=1;backgroundOutline=1;size=15;" vertex="1" parent="1">
          <mxGeometry x="810" y="240" width="50" height="70" as="geometry" />
        </mxCell>
        <mxCell id="quX8b9LSYVhGij03t-H_-42" value="" style="shape=message;html=1;html=1;outlineConnect=0;labelPosition=center;verticalLabelPosition=bottom;align=center;verticalAlign=top;" vertex="1" parent="1">
          <mxGeometry x="890" y="336" width="60" height="40" as="geometry" />
        </mxCell>
        <mxCell id="quX8b9LSYVhGij03t-H_-43" value="" style="verticalLabelPosition=bottom;html=1;verticalAlign=top;align=center;strokeColor=none;fillColor=#000000;shape=mxgraph.azure.azure_alert;" vertex="1" parent="1">
          <mxGeometry x="935" y="433.5" width="50" height="42.5" as="geometry" />
        </mxCell>
        <mxCell id="quX8b9LSYVhGij03t-H_-44" value="" style="endArrow=classic;html=1;rounded=0;entryX=0.062;entryY=0.232;entryDx=0;entryDy=0;entryPerimeter=0;" edge="1" parent="1" target="quX8b9LSYVhGij03t-H_-17">
          <mxGeometry width="50" height="50" relative="1" as="geometry">
            <mxPoint x="70" y="370" as="sourcePoint" />
            <mxPoint x="470" y="630" as="targetPoint" />
          </mxGeometry>
        </mxCell>
        <mxCell id="quX8b9LSYVhGij03t-H_-45" value="" style="endArrow=classic;html=1;rounded=0;entryX=0.025;entryY=0.772;entryDx=0;entryDy=0;entryPerimeter=0;" edge="1" parent="1" target="quX8b9LSYVhGij03t-H_-14">
          <mxGeometry width="50" height="50" relative="1" as="geometry">
            <mxPoint x="80" y="850" as="sourcePoint" />
            <mxPoint x="560" y="660" as="targetPoint" />
          </mxGeometry>
        </mxCell>
        <mxCell id="quX8b9LSYVhGij03t-H_-34" value="" style="rounded=0;whiteSpace=wrap;html=1;rotation=30;fillColor=#fff2cc;strokeColor=#d6b656;" vertex="1" parent="1">
          <mxGeometry x="244.04000000000002" y="476" width="56.98" height="30" as="geometry" />
        </mxCell>
        <mxCell id="quX8b9LSYVhGij03t-H_-37" value="" style="rounded=0;whiteSpace=wrap;html=1;rotation=329;fillColor=#fff2cc;strokeColor=#d6b656;" vertex="1" parent="1">
          <mxGeometry x="237.01999999999998" y="728" width="56.98" height="30" as="geometry" />
        </mxCell>
        <mxCell id="quX8b9LSYVhGij03t-H_-46" value="" style="endArrow=classic;html=1;rounded=0;exitX=0.926;exitY=0.273;exitDx=0;exitDy=0;exitPerimeter=0;" edge="1" parent="1">
          <mxGeometry width="50" height="50" relative="1" as="geometry">
            <mxPoint x="647.0400000000002" y="529.92" as="sourcePoint" />
            <mxPoint x="860" y="410" as="targetPoint" />
          </mxGeometry>
        </mxCell>
        <mxCell id="quX8b9LSYVhGij03t-H_-47" value="" style="endArrow=classic;html=1;rounded=0;exitX=0.915;exitY=0.73;exitDx=0;exitDy=0;exitPerimeter=0;" edge="1" parent="1" source="quX8b9LSYVhGij03t-H_-11">
          <mxGeometry width="50" height="50" relative="1" as="geometry">
            <mxPoint x="620" y="660" as="sourcePoint" />
            <mxPoint x="890" y="850" as="targetPoint" />
          </mxGeometry>
        </mxCell>
        <mxCell id="quX8b9LSYVhGij03t-H_-25" value="" style="rounded=0;whiteSpace=wrap;html=1;rotation=329;fillColor=#fff2cc;strokeColor=#d6b656;" vertex="1" parent="1">
          <mxGeometry x="666" y="488" width="56.98" height="30" as="geometry" />
        </mxCell>
        <mxCell id="quX8b9LSYVhGij03t-H_-28" value="" style="rounded=0;whiteSpace=wrap;html=1;rotation=30;fillColor=#fff2cc;strokeColor=#d6b656;" vertex="1" parent="1">
          <mxGeometry x="660" y="720" width="56.98" height="30" as="geometry" />
        </mxCell>
        <mxCell id="quX8b9LSYVhGij03t-H_-48" value="Mocks" style="text;html=1;align=center;verticalAlign=middle;whiteSpace=wrap;rounded=0;fontSize=20;fontStyle=1" vertex="1" parent="1">
          <mxGeometry x="900" y="870" width="60" height="30" as="geometry" />
        </mxCell>
        <mxCell id="quX8b9LSYVhGij03t-H_-52" value="" style="group" vertex="1" connectable="0" parent="1">
          <mxGeometry x="-320" y="280" width="120" height="100" as="geometry" />
        </mxCell>
        <mxCell id="quX8b9LSYVhGij03t-H_-50" value="" style="shape=hexagon;perimeter=hexagonPerimeter2;whiteSpace=wrap;html=1;fixedSize=1;size=30;" vertex="1" parent="quX8b9LSYVhGij03t-H_-52">
          <mxGeometry width="120" height="100" as="geometry" />
        </mxCell>
        <mxCell id="quX8b9LSYVhGij03t-H_-51" value="" style="shape=hexagon;perimeter=hexagonPerimeter2;whiteSpace=wrap;html=1;fixedSize=1;size=20;" vertex="1" parent="quX8b9LSYVhGij03t-H_-52">
          <mxGeometry x="25" y="22.5" width="70" height="55" as="geometry" />
        </mxCell>
        <mxCell id="quX8b9LSYVhGij03t-H_-54" value="Rest" style="text;html=1;align=center;verticalAlign=middle;whiteSpace=wrap;rounded=0;fontSize=20;fontStyle=1" vertex="1" parent="1">
          <mxGeometry y="310" width="80" height="30" as="geometry" />
        </mxCell>
        <mxCell id="quX8b9LSYVhGij03t-H_-56" value="Events" style="text;html=1;align=center;verticalAlign=middle;whiteSpace=wrap;rounded=0;fontSize=20;fontStyle=1" vertex="1" parent="1">
          <mxGeometry x="-300" y="400" width="80" height="30" as="geometry" />
        </mxCell>
        <mxCell id="quX8b9LSYVhGij03t-H_-57" value="Database" style="text;html=1;align=center;verticalAlign=middle;whiteSpace=wrap;rounded=0;fontSize=20;fontStyle=1" vertex="1" parent="1">
          <mxGeometry x="790" y="200" width="100" height="30" as="geometry" />
        </mxCell>
        <mxCell id="quX8b9LSYVhGij03t-H_-58" value="EMail" style="text;html=1;align=center;verticalAlign=middle;whiteSpace=wrap;rounded=0;fontSize=20;fontStyle=1" vertex="1" parent="1">
          <mxGeometry x="870" y="290" width="100" height="30" as="geometry" />
        </mxCell>
        <mxCell id="quX8b9LSYVhGij03t-H_-60" value="Notification" style="text;html=1;align=center;verticalAlign=middle;whiteSpace=wrap;rounded=0;fontSize=20;fontStyle=1" vertex="1" parent="1">
          <mxGeometry x="910" y="393.5" width="100" height="30" as="geometry" />
        </mxCell>
        <mxCell id="quX8b9LSYVhGij03t-H_-61" value="" style="shape=cylinder3;whiteSpace=wrap;html=1;boundedLbl=1;backgroundOutline=1;size=15;rotation=90;" vertex="1" parent="1">
          <mxGeometry x="983.75" y="516.25" width="45" height="77.5" as="geometry" />
        </mxCell>
        <mxCell id="quX8b9LSYVhGij03t-H_-62" value="Message Queue" style="text;html=1;align=center;verticalAlign=middle;whiteSpace=wrap;rounded=0;fontSize=20;fontStyle=1" vertex="1" parent="1">
          <mxGeometry x="922.5" y="490" width="167.5" height="30" as="geometry" />
        </mxCell>
        <mxCell id="quX8b9LSYVhGij03t-H_-63" value="" style="shape=cylinder3;whiteSpace=wrap;html=1;boundedLbl=1;backgroundOutline=1;size=15;rotation=90;" vertex="1" parent="1">
          <mxGeometry x="-58.75" y="432.5" width="45" height="77.5" as="geometry" />
        </mxCell>
        <mxCell id="quX8b9LSYVhGij03t-H_-64" value="Message Queue" style="text;html=1;align=center;verticalAlign=middle;whiteSpace=wrap;rounded=0;fontSize=20;fontStyle=1" vertex="1" parent="1">
          <mxGeometry x="-120" y="406.25" width="167.5" height="30" as="geometry" />
        </mxCell>
        <mxCell id="quX8b9LSYVhGij03t-H_-65" value="Tests" style="text;html=1;align=center;verticalAlign=middle;whiteSpace=wrap;rounded=0;fontSize=20;fontStyle=1" vertex="1" parent="1">
          <mxGeometry x="-20" y="850" width="60" height="30" as="geometry" />
        </mxCell>
        <mxCell id="quX8b9LSYVhGij03t-H_-66" value="" style="endArrow=classic;html=1;rounded=0;dashed=1;" edge="1" parent="1" target="quX8b9LSYVhGij03t-H_-16">
          <mxGeometry width="50" height="50" relative="1" as="geometry">
            <mxPoint x="60" y="120" as="sourcePoint" />
            <mxPoint x="230" y="540" as="targetPoint" />
          </mxGeometry>
        </mxCell>
        <mxCell id="quX8b9LSYVhGij03t-H_-67" value="Command/Query" style="text;html=1;align=center;verticalAlign=middle;whiteSpace=wrap;rounded=0;fontSize=20;fontStyle=1" vertex="1" parent="1">
          <mxGeometry x="-40" y="80" width="163.75" height="30" as="geometry" />
        </mxCell>
        <mxCell id="quX8b9LSYVhGij03t-H_-68" value="" style="endArrow=classic;html=1;rounded=0;dashed=1;strokeWidth=2;" edge="1" parent="1">
          <mxGeometry width="50" height="50" relative="1" as="geometry">
            <mxPoint x="-300" y="620" as="sourcePoint" />
            <mxPoint x="450" y="620" as="targetPoint" />
          </mxGeometry>
        </mxCell>
        <mxCell id="quX8b9LSYVhGij03t-H_-70" value="Direction of Dependencies" style="text;html=1;align=center;verticalAlign=middle;whiteSpace=wrap;rounded=0;fontSize=19;fontStyle=1" vertex="1" parent="1">
          <mxGeometry x="-176.25" y="635" width="280" height="30" as="geometry" />
        </mxCell>
        <mxCell id="quX8b9LSYVhGij03t-H_-71" value="" style="endArrow=none;dashed=1;html=1;dashPattern=1 3;strokeWidth=2;rounded=0;entryX=0.5;entryY=1;entryDx=0;entryDy=0;" edge="1" parent="1" target="quX8b9LSYVhGij03t-H_-13">
          <mxGeometry width="50" height="50" relative="1" as="geometry">
            <mxPoint x="240" y="1300" as="sourcePoint" />
            <mxPoint x="400" y="820" as="targetPoint" />
          </mxGeometry>
        </mxCell>
        <mxCell id="quX8b9LSYVhGij03t-H_-72" value="" style="endArrow=none;dashed=1;html=1;rounded=0;entryX=0;entryY=0.5;entryDx=0;entryDy=0;" edge="1" parent="1" target="quX8b9LSYVhGij03t-H_-38">
          <mxGeometry width="50" height="50" relative="1" as="geometry">
            <mxPoint x="-40" y="1200" as="sourcePoint" />
            <mxPoint x="400" y="820" as="targetPoint" />
          </mxGeometry>
        </mxCell>
        <mxCell id="quX8b9LSYVhGij03t-H_-73" value="Ports" style="text;html=1;align=center;verticalAlign=middle;whiteSpace=wrap;rounded=0;fontSize=17;fontStyle=1" vertex="1" parent="1">
          <mxGeometry x="-73.75" y="1200" width="60" height="30" as="geometry" />
        </mxCell>
        <mxCell id="quX8b9LSYVhGij03t-H_-74" value="Adapters" style="text;html=1;align=center;verticalAlign=middle;whiteSpace=wrap;rounded=0;fontSize=17;fontStyle=1" vertex="1" parent="1">
          <mxGeometry x="185.06" y="1300" width="85.46" height="30" as="geometry" />
        </mxCell>
      </root>
    </mxGraphModel>
  </diagram>
</mxfile>
